<?xml version="1.0" encoding="UTF-8"?>
<svg width="100px" height="38px" viewBox="0 0 100 38" version="1.1" xmlns="http://www.w3.org/2000/svg" xmlns:xlink="http://www.w3.org/1999/xlink">
    <!-- Generator: Sketch 46.2 (44496) - http://www.bohemiancoding.com/sketch -->
    <title>Shape</title>
    <desc>Created with Sketch.</desc>
    <defs></defs>
    <g id="Page-1" stroke="none" stroke-width="1" fill="none" fill-rule="evenodd">
        <path d="M96.318,19.591 C96.808,19.86 96.853,20.717 96.318,21.118 C95.782,21.519 94.622,22.642 94.398,22.999 C94.174,23.356 93.773,23.672 92.748,23.716 C91.721,23.761 90.963,23.092 88.596,22.868 C86.231,22.644 85.069,22.021 84.088,21.798 C83.106,21.575 82.123,20.842 82.302,20.094 C82.481,19.344 83.821,18.987 83.821,18.406 C83.821,17.825 83.483,16.488 84.311,16.509 C84.95,16.525 85.606,16.543 85.561,17.123 C85.516,17.703 85.052,18.568 85.54,18.702 C86.029,18.836 85.962,18.027 86.453,18.161 C87.075,18.33 86.765,18.987 86.765,18.987 L87.5,19.121 C87.724,18.942 87.896,18.505 88.132,18.54 C88.601,18.607 88.595,19.254 88.595,19.254 L89.241,19.366 C89.375,19.277 89.44,18.808 89.843,18.808 C90.246,18.808 90.224,19.568 90.224,19.568 L90.714,19.589 C90.714,19.589 90.905,18.897 91.308,18.941 C91.708,18.986 91.853,19.45 91.853,19.45 L92.122,19.45 C92.122,19.45 92.391,19.04 92.836,19.085 C93.282,19.129 93.327,20.107 93.327,20.107 C93.327,20.107 93.773,20.461 94.443,20.328 C95.111,20.193 95.827,19.322 96.318,19.591 Z M98.816,19.098 C98.504,19.991 97.478,19.321 97.412,19.098 C97.346,18.875 96.808,18.429 96.474,18.004 C96.138,17.58 95.334,17.379 94.845,17.379 C94.353,17.379 93.795,17.558 93.795,17.558 C93.795,17.558 93.64,18.517 93.304,18.54 C92.97,18.562 92.589,17.87 92.589,17.87 L92.165,17.915 C92.165,17.915 92.144,18.518 91.718,18.54 C91.295,18.562 91.25,17.848 91.25,17.848 L90.603,17.759 C90.603,17.759 90.47,18.429 90.09,18.429 C89.71,18.429 89.777,17.715 89.777,17.715 L89.154,17.559 C89.154,17.559 88.818,18.072 88.394,18.028 C87.97,17.983 88.013,17.381 88.013,17.381 L87.455,17.202 C87.455,17.202 87.366,17.76 86.92,17.693 C86.474,17.626 86.651,16.979 86.651,16.979 C86.651,16.979 86.541,16.711 86.227,16.51 C85.915,16.309 85.539,15.178 84.708,15.149 C82.119,15.06 83.102,16.533 82.833,17.024 C82.564,17.515 82.164,18.005 81.316,18.675 C80.466,19.345 80.109,18.319 80.465,17.917 C80.823,17.516 80.689,16.623 80.242,16.51 C79.796,16.398 79.617,16.667 78.723,17.292 C77.83,17.917 77.117,17.604 76.58,17.247 C76.045,16.89 76.045,15.64 76.045,15.64 C76.045,15.64 75.285,15.015 74.973,14.614 C74.661,14.212 74.706,13.007 74.706,13.007 C74.706,13.007 74.17,12.873 73.812,12.293 C73.455,11.712 73.722,10.531 73.722,10.531 C73.722,10.531 73.097,10.195 72.917,9.748 C72.739,9.302 73.142,8.186 73.142,8.186 C73.142,8.186 72.472,7.606 72.382,6.936 C72.292,6.267 72.917,5.552 72.917,5.552 C72.917,5.552 72.382,4.614 72.382,3.9 C72.382,3.186 73.543,2.918 73.453,2.517 C73.363,2.115 73.141,1.267 74.391,1.579 C75.639,1.891 77.426,5.463 78.631,6.757 C79.836,8.051 82.069,8.632 82.871,8.14 C83.676,7.649 85.281,5.729 86.219,5.194 C87.157,4.658 89.479,4.792 90.995,4.525 C92.514,4.257 93.271,3.052 93.54,3.096 C93.809,3.14 93.584,4.034 92.87,4.971 C92.155,5.909 89.21,7.247 90.46,7.337 C91.709,7.426 94.522,7.025 95.325,6.757 C96.129,6.489 96.976,6.31 96.442,6.757 C95.906,7.203 93.986,8.275 92.513,8.81 C91.038,9.346 88.093,9.614 87.601,9.837 C87.111,10.06 88.048,10.997 88.495,11.488 C88.941,11.979 90.594,12.694 90.906,12.782 C91.218,12.871 93.226,12.604 93.806,12.604 C94.388,12.604 94.7,13.05 95.861,13.095 C97.021,13.14 97.066,11.22 97.646,11.31 C98.226,11.399 98.316,12.894 98.091,13.319 C97.867,13.744 97.533,14.457 97.556,14.725 C97.577,14.993 98.494,15.663 98.806,16.198 C99.131,16.732 99.131,18.206 98.816,19.098 Z M87.346,12.469 C86.766,12.112 86.543,11.221 85.962,11.219 C85.068,11.216 84.68,11.971 84.668,12.558 C84.647,13.718 85.606,13.942 86.318,13.897 C87.033,13.853 87.84,12.773 87.346,12.469 Z M96.453,15.996 C96.408,15.058 96.363,14.746 95.648,14.434 C94.933,14.122 94.533,13.72 93.593,13.72 C92.656,13.72 92.879,14.122 92.656,14.747 C92.491,15.209 93.012,15.908 93.86,15.863 C94.709,15.819 94.977,16.042 95.245,16.31 C95.516,16.576 96.497,16.933 96.453,15.996 Z M71.499,23.104 C70.823,23.501 70.271,23.651 69.814,23.647 C69.587,24.016 69.365,24.319 69.22,24.444 C68.718,24.881 67.726,26.085 67.452,26.553 C67.186,27.006 66.61,28.903 65.508,28.162 C65.617,28.392 65.698,28.673 65.739,28.996 C65.905,30.336 66.843,32.177 66.977,32.411 C67.11,32.644 68.182,33.146 66.977,33.951 C65.772,34.755 65.903,33.047 65.77,32.579 C65.637,32.109 64.733,29.6 64.465,29.365 C64.196,29.13 63.36,28.326 63.995,27.722 C64.316,27.418 64.659,27.382 64.958,27.539 C64.622,26.798 65.365,26.102 66.172,25.645 C67.042,25.153 67.637,23.805 68.171,22.647 C67.893,22.221 67.729,21.781 67.611,21.594 C67.509,21.432 67.435,21.169 67.375,20.881 C66.803,21.167 66.166,21.475 65.764,21.627 C64.887,21.962 63.059,22.766 62.501,22.966 C61.943,23.167 61.385,23.87 60.781,24.004 C60.177,24.139 59.911,23.669 59.753,23.342 C59.596,23.016 58.739,22.966 58.906,22.565 C59.074,22.164 60.581,21.794 61.349,21.594 C61.492,21.557 61.806,21.451 62.22,21.307 C62.282,20.716 62.65,19.744 63.089,19.226 C63.488,18.758 64.25,17.821 64.881,17.067 C64.779,16.983 64.693,16.916 64.63,16.873 C64.345,16.682 63.888,16.616 63.456,16.519 C62.685,17.317 62.173,18.211 61.75,18.882 C61.183,19.786 61.047,21.528 60.345,21.327 C59.913,21.203 60.982,18.313 61.55,17.342 C61.796,16.921 62.148,16.41 62.47,15.961 C62.202,15.436 62.373,14.493 62.689,14.061 C62.902,13.768 63.793,12.655 64.095,12.521 C64.396,12.387 65.435,12.789 65.299,13.458 C65.169,14.108 65.55,14.667 66.183,15.495 C66.532,14.946 66.855,14.227 66.974,13.726 C67.142,13.023 67.275,12.872 66.605,12.495 C65.937,12.119 65.501,12.655 65.066,11.818 C64.63,10.981 65.634,10.211 66.004,9.776 C66.372,9.34 66.339,8.202 66.775,7.934 C67.21,7.666 67.459,7.7 67.517,7.398 C67.578,7.097 67.411,5.959 68.246,6.494 C68.828,6.866 69.05,7.498 68.749,7.967 C68.447,8.436 68.181,9.006 68.414,9.374 C68.647,9.742 68.972,10.245 68.893,10.78 C68.815,11.315 68.379,12.134 68.246,12.495 C68.112,12.856 68.015,14.295 67.679,14.965 C67.552,15.218 67.228,15.701 66.829,16.241 C67.079,16.504 67.362,16.783 67.665,17.064 C67.799,16.898 67.918,16.753 68.013,16.639 C68.816,15.668 69.118,14.999 69,14.53 C68.882,14.061 68.313,13.358 68.749,12.756 C69.185,12.153 69.451,11.785 69.519,11.048 C69.586,10.312 68.984,8.872 69.788,8.772 C70.452,8.689 70.826,9.308 70.826,10.078 C70.826,10.848 70.525,11.735 70.425,12.496 C70.324,13.258 70.727,14.497 70.307,14.966 C69.999,15.312 69.266,16.835 68.653,17.906 C69.106,18.258 69.526,18.531 69.815,18.612 C70.647,18.005 71.555,17.375 71.731,17.042 C72.033,16.472 71.453,16.071 71.24,15.435 C71.028,14.799 71.42,13.731 71.24,13.545 C71.061,13.359 70.817,12.254 71.24,11.92 C71.665,11.585 72.201,11.443 72.201,10.526 C72.201,10.051 73.194,10.748 73.098,11.451 C73.002,12.154 73.061,13.594 73.098,14.096 C73.137,14.598 73.317,15.898 73.11,16.387 C72.903,16.875 72.434,17.812 71.899,18.214 C71.716,18.35 71.221,18.625 70.585,19 C71.875,19.829 73.787,21.758 71.499,23.104 Z M63.118,20.993 C63.762,20.761 64.488,20.493 65.185,20.234 C65.556,19.74 66.019,19.142 66.476,18.562 C66.224,18.31 65.933,18.026 65.648,17.757 C65.347,18.116 65.068,18.427 64.861,18.617 C64.099,19.321 63.261,20.349 63.163,20.823 C63.15,20.879 63.137,20.936 63.118,20.993 Z M66.912,28.596 C65.673,29.098 66.912,30.237 66.912,30.237 C66.912,30.237 67.615,31.778 67.73,32.246 C67.845,32.716 67.513,33.852 68.517,33.317 C69.523,32.782 68.685,32.414 68.517,32.011 C68.351,31.61 67.546,30.805 67.73,30.035 C67.913,29.266 67.561,28.333 66.912,28.596 Z M66.912,34.164 C66.912,34.164 66.745,34.789 66.745,35.057 C66.745,35.327 67.126,35.727 67.454,35.727 C67.782,35.727 67.952,35.503 67.683,34.946 C67.414,34.389 67.577,34.208 66.912,34.164 Z M68.018,34.164 C68.018,34.164 67.618,34.521 67.817,34.789 C68.018,35.057 68.051,35.793 68.487,35.727 C68.924,35.661 69.492,35.458 69.157,35.192 C68.82,34.923 68.74,34.093 68.018,34.164 Z M70.159,34.945 C70.997,34.855 70.662,34.568 70.461,34.361 C70.262,34.152 69.993,33.338 69.005,33.751 C69.005,33.751 69.057,34.287 69.257,34.589 C69.456,34.891 69.323,35.035 70.159,34.945 Z M66.544,35.73 C66.356,35.704 65.841,35.959 65.841,36.195 C65.841,36.427 65.979,36.798 66.362,36.798 C66.747,36.798 67.049,36.401 66.981,36.266 C66.912,36.129 67.047,35.802 66.544,35.73 Z M67.684,36.264 C67.684,36.264 67.427,36.43 67.455,36.664 C67.482,36.898 67.684,37.1 67.984,37.064 C68.286,37.032 68.853,36.73 68.654,36.497 C68.452,36.264 67.889,36.023 67.684,36.264 Z M69.854,36.027 C69.458,35.961 69.248,35.722 69.005,36.027 C68.792,36.298 68.587,36.503 69.005,36.616 C69.423,36.73 69.824,37.064 70.093,36.798 C70.359,36.529 70.248,36.096 69.854,36.027 Z M71.566,35.393 C70.962,35.192 70.699,35.36 70.599,35.561 C70.429,35.903 70.661,36.067 71.029,36.165 C71.398,36.263 72.034,36.467 72.202,36.265 C72.369,36.062 72.169,35.593 71.566,35.393 Z M74.624,15.192 C74.223,14.701 74.275,13.301 73.863,13.585 C73.252,14.009 74.043,16.04 74.077,16.71 C74.109,17.379 73.015,19.076 73.105,19.121 C73.195,19.165 73.373,19.344 73.64,19.121 C73.909,18.897 74.712,17.647 75.381,17.424 C76.051,17.201 75.47,16.755 75.381,16.508 C75.293,16.263 75.025,15.683 74.624,15.192 Z M62.895,8.768 C62.594,9.363 63.03,9.277 63.096,9.579 C63.163,9.88 62.828,10.081 62.208,10.751 C61.588,11.42 59.781,14.936 59.212,16.509 C58.645,18.083 58.441,20.997 58.877,20.824 C59.313,20.652 59.982,17.715 60.283,16.878 C60.585,16.041 62.325,13.061 62.762,12.5 C63.198,11.939 63.866,11.12 64.469,10.852 C65.072,10.584 65.205,8.977 65.461,8.542 C65.718,8.106 66.176,7.47 66.275,7.035 C66.377,6.6 65.773,6.299 65.558,5.931 C65.343,5.562 65.806,4.993 65.767,4.558 C65.726,4.123 65.066,3.562 64.634,3.822 C64.132,4.123 64.484,4.433 64.383,4.868 C64.282,5.303 64.132,4.96 63.629,5.295 C63.128,5.629 63.396,6.634 63.528,7.203 C63.664,7.771 63.195,8.173 62.895,8.768 Z M60.686,8.768 C60.686,8.768 59.748,10.048 59.045,11.186 C58.342,12.324 57.471,14.099 57.17,15.84 C56.868,17.581 57.203,19.657 57.538,19.55 C57.872,19.442 57.975,16.944 58.24,16.057 C58.509,15.169 59.045,13.73 59.814,12.499 C60.585,11.269 61.288,10.114 61.754,9.813 C62.224,9.512 62.323,8.942 62.341,8.306 C62.357,7.67 62.592,6.465 62.915,5.595 C63.24,4.724 62.56,4.356 62.341,4.122 C62.122,3.888 62.759,3.519 62.894,3.184 C63.027,2.85 62.56,2.136 61.754,2.179 C60.517,2.246 61.22,3.586 61.22,3.586 C61.22,3.586 61.019,3.653 60.65,4.155 C60.283,4.657 60.683,5.628 60.417,6.063 C60.148,6.498 59.949,7.235 60.027,7.704 C60.105,8.173 60.785,8.039 60.686,8.768 Z M57.27,6.357 C57.205,6.919 57.707,7.101 57.94,7.704 C58.174,8.306 57.975,9.545 57.504,10.373 C57.036,11.201 55.932,13.362 55.663,14.734 C55.394,16.107 55.764,18.35 56.064,18.122 C56.366,17.894 56.13,16.441 56.297,15.403 C56.465,14.365 57.302,12.692 57.569,12.089 C57.836,11.486 58.942,9.444 59.243,8.767 C59.544,8.09 59.243,7.268 59.411,6.699 C59.579,6.13 59.579,4.49 59.712,4.188 C59.847,3.887 59.646,3.317 59.36,3.05 C59.076,2.782 59.276,2.313 59.342,1.945 C59.409,1.577 59.303,1.063 58.404,1.175 C57.599,1.276 57.367,1.644 57.4,2.177 C57.433,2.71 57.8,3.016 57.8,3.016 C57.8,3.016 57.197,3.351 57.046,3.754 C56.896,4.157 57.532,4.757 57.658,5.058 C57.788,5.36 57.338,5.795 57.27,6.357 Z M59.645,24.461 C58.364,24.777 59.052,26.219 59.052,26.219 L59.052,28.339 C59.052,28.339 58.762,28.766 58.774,29.468 C58.786,30.171 59.841,30.307 60.244,29.971 C60.647,29.636 60.125,28.836 60.125,28.836 C60.125,28.836 60.123,26.732 60.11,26.365 C60.098,25.997 60.428,25.574 60.463,25.239 C60.498,24.904 60.023,24.365 59.645,24.461 Z M58.441,23.348 C57.65,23.699 58.005,24.451 58.005,24.451 L57.662,26.924 C57.662,26.924 57.67,27.125 57.369,27.593 C57.067,28.062 57.434,29.234 58.072,29.033 C58.708,28.832 58.606,27.626 58.438,27.593 C58.272,27.56 58.673,25.115 58.903,24.747 C59.135,24.378 58.934,23.129 58.441,23.348 Z M58.132,30.803 C57.755,30.835 57.305,31.541 57.438,31.742 C57.573,31.943 58.577,31.909 59,31.742 C59.423,31.575 59.706,30.921 59.445,30.803 C59.145,30.668 58.509,30.771 58.132,30.803 Z M58.48,30.146 C58.017,29.554 57.538,30.269 57.05,30.47 C56.566,30.67 56.632,31.105 56.933,31.308 C57.236,31.51 58.48,30.146 58.48,30.146 Z M56.1,29.366 C55.83,29.599 55.932,30.136 56.299,30.146 C56.668,30.156 57.82,29.853 57.589,29.599 C57.105,29.064 56.366,29.131 56.1,29.366 Z M55.061,30.146 C55.43,30.023 55.573,29.929 55.397,29.667 C54.995,29.066 54.125,29.665 54.192,29.667 C54.257,30.035 54.691,30.27 55.061,30.146 Z M55.947,31.004 C55.293,30.432 54.558,30.839 54.828,31.274 C55.099,31.708 55.463,31.711 55.73,31.543 C55.997,31.374 56.119,31.154 55.947,31.004 Z M56.366,31.881 C55.295,32.248 55.629,32.983 56.027,33.016 C56.423,33.048 56.967,32.815 57.05,32.479 C57.137,32.145 56.721,31.759 56.366,31.881 Z M54.225,13.797 C54.057,14.667 54.391,17.078 54.692,16.676 C54.995,16.274 55.163,13.294 55.571,12.156 C55.981,11.018 56.602,9.445 56.735,8.767 C56.87,8.09 56.936,6.23 56.735,5.895 C56.535,5.56 56.434,5.058 56.434,4.456 C56.434,3.853 56.535,3.05 56.165,2.882 C55.795,2.714 55.764,2.446 55.764,1.978 C55.764,1.51 55.348,1.302 54.692,1.159 C54.078,1.024 54.192,1.308 54.057,1.643 C53.922,1.977 54.66,2.246 54.526,2.581 C54.391,2.915 53.791,2.949 53.744,3.754 C53.696,4.559 54.259,5.058 54.391,5.962 C54.524,6.866 54.458,7.569 54.159,8.54 C53.856,9.511 53.555,12.155 53.889,12.089 C54.225,12.022 54.391,10.315 54.727,9.649 C55.061,8.982 55.128,6.833 55.571,7.201 C56.014,7.569 55.799,9.143 55.52,10.013 C55.243,10.884 54.391,12.926 54.225,13.797 Z M52.885,1.912 C52.951,1.51 52.24,0.739 51.614,0.974 C50.275,1.476 51.143,2.347 51.344,2.581 C51.546,2.815 51.647,3.217 51.177,3.418 C50.708,3.619 51.076,3.987 50.574,4.389 C50.072,4.791 47.661,5.527 45.686,6.163 C43.711,6.799 41.568,8.138 40.229,8.922 C38.89,9.707 36.245,11.553 35.141,12.292 C34.036,13.03 35.207,12.959 35.274,13.261 C35.341,13.562 33.901,14.802 34.337,15.136 C34.772,15.471 36.713,12.658 37.383,12.292 C38.053,11.925 38.521,12.29 38.086,12.792 C37.65,13.294 37.584,13.83 37.985,13.897 C38.387,13.964 39.291,12.792 39.458,12.292 C39.625,11.792 39.827,10.917 40.596,11.185 C41.366,11.453 40.931,12.29 40.195,12.926 C39.458,13.562 38.487,14.801 37.818,15.236 C37.149,15.672 36.948,16.207 36.446,17.881 C35.943,19.555 36.814,21.13 36.948,20.831 C37.082,20.532 37.082,20.059 37.182,19.55 C37.283,19.041 37.718,17.614 38.12,17.011 C38.522,16.409 39.661,15.337 40.531,14.635 C41.402,13.931 42.44,12.291 43.075,11.823 C43.711,11.354 44.381,11.22 44.984,11.555 C45.586,11.889 45.117,12.894 45.486,13.128 C45.854,13.362 47.327,13.262 48.7,13.548 C50.073,13.835 49.872,15.237 50.81,15.17 C51.747,15.104 52.081,14.132 52.517,13.548 C52.952,12.964 53.185,12.191 53.152,11.722 C53.119,11.253 52.283,10.885 51.478,10.866 C50.674,10.847 50.105,11.32 49.436,11.488 C48.767,11.655 47.093,11.153 46.624,10.866 C46.155,10.58 46.189,9.914 46.624,9.65 C47.059,9.385 47.763,8.508 49.068,8.139 C50.373,7.771 51.443,6.633 51.914,6.532 C52.382,6.432 52.55,6.733 52.543,7.336 C52.537,7.939 52.35,9.613 52.783,9.65 C53.219,9.687 53.052,8.475 53.118,7.872 C53.185,7.269 53.351,5.729 53.454,4.859 C53.555,3.989 53.286,3.185 52.891,2.951 C52.491,2.715 52.816,2.313 52.885,1.912 Z M46.97,4.791 C47.294,4.791 47.863,4.222 48.432,4.322 C49.247,4.466 49.671,4.157 49.938,3.754 C50.206,3.351 50.105,2.949 49.603,2.782 C49.101,2.615 48.967,2.447 48.967,2.447 C48.967,2.447 49.134,1.276 48.029,1.644 C46.924,2.012 46.857,2.648 47.058,2.749 C47.259,2.85 47.762,2.85 47.728,3.15 C47.694,3.451 47.148,3.652 46.969,3.887 C46.791,4.122 46.646,4.791 46.97,4.791 Z M44.983,5.36 C45.284,5.193 46.254,4.858 46.289,4.589 C46.322,4.321 45.72,4.188 45.686,3.754 C45.653,3.32 45.113,2.984 44.515,3.328 C43.697,3.797 44.046,4.188 44.381,4.585 C44.707,4.971 43.51,5.159 43.865,5.627 C44.22,6.095 44.682,5.527 44.983,5.36 Z M42.104,6.9 C42.405,6.632 43.142,6.431 43.477,6.096 C43.811,5.762 43.169,4.927 42.707,5.125 C41.769,5.526 41.234,5.861 41.167,6.356 C41.099,6.852 41.803,7.168 42.104,6.9 Z M39.626,8.273 C39.86,8.072 40.865,7.604 40.999,7.302 C41.133,7.001 40.52,6.427 40.061,6.532 C39.626,6.633 39.525,6.767 39.057,6.998 C38.588,7.229 38.119,7.704 38.387,8.273 C38.655,8.842 39.392,8.474 39.626,8.273 Z M35.643,10.899 C36.145,10.578 36.346,10.316 37.216,9.913 C38.087,9.512 38.254,9.043 37.919,8.577 C37.585,8.111 37.015,8.374 36.781,8.039 C36.547,7.705 36.775,7.308 36.044,7.403 C35.274,7.503 35.743,8.577 35.743,8.577 C35.743,8.577 35.174,8.843 34.873,9.189 C34.572,9.536 35.074,9.78 35.174,10.115 C35.274,10.449 35.141,11.219 35.643,10.899 Z M32.796,9.182 C33.03,9.388 32.595,9.813 32.361,10.148 C32.127,10.482 32.495,11.922 32.83,12.293 C33.164,12.663 33.064,12.994 32.729,13.563 C32.394,14.132 31.691,15.17 32.06,15.271 C32.429,15.371 33.198,14.132 33.56,13.563 C33.923,12.994 34.035,12.392 34.537,11.956 C35.039,11.52 34.671,10.952 34.537,10.115 C34.403,9.278 33.968,9.512 33.968,9.512 C33.968,9.512 33.901,8.976 33.734,8.577 C33.567,8.178 32.463,8.195 32.328,8.577 C32.127,9.148 32.562,8.976 32.796,9.182 Z M32.261,12.499 C32.294,12.039 31.96,11.687 31.956,11.219 C31.953,10.75 31.692,10.181 31.491,9.813 C31.29,9.445 31.151,8.834 30.453,8.923 C29.817,9.005 29.985,9.378 30.186,9.813 C30.387,10.249 30.32,10.214 30.186,10.373 C30.052,10.531 30.119,11.855 30.252,12.499 C30.386,13.144 30.587,12.96 30.487,13.562 C30.386,14.165 29.315,15.604 29.65,15.604 C29.985,15.604 31.023,14.231 31.359,13.628 C31.694,13.027 32.227,12.96 32.261,12.499 Z M28.946,10.373 C28.845,9.996 28.529,9.39 28.042,9.512 C27.238,9.713 27.774,10.516 27.517,10.975 C27.259,11.434 27.707,12.023 27.707,12.023 C27.707,12.023 27.874,12.994 28.109,13.362 C28.344,13.73 28.21,14.266 27.975,14.9 C27.741,15.533 27.171,16.108 27.808,16.058 C28.444,16.007 29.047,14.334 29.08,13.932 C29.113,13.531 29.214,13.564 29.414,13.296 C29.615,13.029 29.481,12.258 29.414,11.388 C29.349,10.516 29.047,10.75 28.946,10.373 Z M26.502,10.975 C26.502,10.975 26.429,10.085 25.799,10.181 C24.694,10.348 25.556,11.218 25.765,11.353 C26.283,11.687 25.832,11.687 25.665,12.023 C25.498,12.357 25.832,13.127 25.966,13.462 C26.1,13.797 26.267,14.132 25.966,14.768 C25.665,15.404 25.062,16.308 25.43,16.308 C25.799,16.308 26.97,14.567 27.138,14.132 C27.306,13.697 27.238,12.023 27.138,11.621 C27.038,11.219 26.502,10.975 26.502,10.975 Z M24.661,11.219 C24.661,10.918 24.404,10.378 23.79,10.549 C22.953,10.784 23.723,11.453 23.723,11.453 C23.723,11.453 23.422,11.687 23.221,11.955 C23.02,12.223 23.656,12.491 23.656,12.491 C23.656,12.491 23.388,13.228 23.388,13.635 C23.388,14.042 23.89,14.065 23.823,14.667 C23.757,15.27 21.948,16.743 23.02,16.721 C24.091,16.699 24.828,14.265 25.062,13.93 C25.296,13.596 25.263,12.524 25.062,12.259 C24.862,11.994 24.661,11.52 24.661,11.219 Z M22.682,12.994 C22.612,12.559 22.318,12.123 21.983,11.923 C21.648,11.722 21.43,11.117 20.945,11.254 C19.874,11.555 20.945,12.057 20.911,12.294 C20.878,12.53 20.442,12.779 20.442,12.779 C20.442,12.779 20.677,13.129 20.744,13.463 C20.811,13.798 21.413,14.367 21.179,14.937 C20.945,15.506 19.371,16.678 20.376,16.723 C21.38,16.768 22.05,14.937 22.518,14.502 C22.987,14.065 22.753,13.429 22.682,12.994 Z M20.242,13.619 C20.108,13.207 19.673,12.994 19.673,12.778 C19.673,12.562 19.493,11.668 18.97,11.78 C17.765,12.04 18.568,13.061 18.568,13.061 C18.568,13.061 18.401,13.395 18.334,13.978 C18.267,14.56 18.769,14.601 18.769,15.069 C18.769,15.538 17.497,16.878 18.1,16.878 C18.703,16.878 19.707,15.104 20.045,14.802 C20.382,14.5 20.376,14.031 20.242,13.619 Z M16.425,12.26 C15.622,12.497 16.292,13.028 16.292,13.028 C16.292,13.028 15.823,13.295 15.723,13.978 C15.622,14.66 16.024,14.902 16.057,15.605 C16.091,16.308 14.751,16.911 15.622,16.877 C16.493,16.843 17.598,15.136 17.664,14.323 C17.73,13.51 17.296,13.094 17.296,13.094 C17.296,13.094 17.003,12.089 16.425,12.26 Z M14.685,13.241 C14.685,13.241 14.484,12.242 13.981,12.26 C12.977,12.296 13.68,13.619 13.68,13.619 C13.68,13.619 13.345,13.563 13.245,14.324 C13.144,15.085 13.714,14.836 13.68,15.606 C13.647,16.376 11.671,17.313 12.776,17.28 C13.881,17.247 15.254,14.937 15.327,14.324 C15.401,13.712 14.685,13.241 14.685,13.241 Z M12.608,13.241 C12.608,13.241 12.52,12.199 11.939,12.458 C11.035,12.86 11.671,13.462 11.671,13.462 C11.671,13.462 11.035,13.529 11.002,14.323 C10.968,15.118 11.504,15.103 11.337,15.605 C11.17,16.107 9.495,17.212 10.366,17.28 C11.237,17.347 11.973,15.471 12.174,15.276 C12.375,15.081 12.877,14.534 12.843,14.132 C12.809,13.73 12.608,13.241 12.608,13.241 Z M10.533,14.323 C10.533,13.611 10.116,13.24 10.116,13.24 C10.116,13.24 10.08,12.24 9.327,12.416 C8.356,12.643 9.026,13.24 9.026,13.24 C9.026,13.24 8.524,13.997 8.423,14.323 C8.322,14.649 8.858,14.366 8.992,15.276 C9.126,16.186 6.983,16.878 8.222,16.879 C9.461,16.88 9.93,15.276 9.93,15.276 C9.93,15.276 10.533,15.036 10.533,14.323 Z M7.687,13.462 C7.687,13.462 7.739,12.29 7.218,12.417 C6.013,12.71 6.883,13.619 6.883,13.619 C6.883,13.619 6.649,13.898 6.482,14.324 C6.315,14.751 6.415,14.97 6.716,15.606 C7.018,16.242 5.879,16.711 6.515,16.722 C7.151,16.733 7.486,15.573 7.72,15.277 C7.955,14.982 8.021,14.869 8.021,14.133 C8.021,13.395 7.687,13.462 7.687,13.462 Z M5.276,13.241 C4.673,13.689 5.075,13.898 4.975,14.56 C4.875,15.221 5.109,15.572 5.276,15.505 C5.443,15.438 5.945,14.467 5.945,13.978 C5.946,13.488 5.402,13.147 5.276,13.241 Z M4.171,13.797 C3.569,13.83 3.702,14.031 3.736,14.369 C3.769,14.707 3.569,15.27 3.937,15.276 C4.305,15.282 4.606,15.036 4.64,14.56 C4.674,14.083 4.171,13.797 4.171,13.797 Z M2.833,13.978 C2.465,14.191 2.432,14.434 2.432,14.564 C2.432,14.694 2.398,15.069 2.833,15.276 C3.268,15.483 3.134,14.936 3.201,14.564 C3.268,14.193 2.833,13.978 2.833,13.978 Z M0.958,14.649 C1.059,14.932 1.695,15.103 1.963,15.136 C2.23,15.169 1.963,14.369 1.963,14.369 C1.494,14.174 0.857,14.366 0.958,14.649 Z M42.366,19.23 C42.613,19.031 42.82,18.381 42.97,17.745 C43.013,17.767 43.041,17.78 43.041,17.78 C43.041,17.78 43.644,19.052 44.18,20.526 C44.716,22.001 44.649,23.206 45.044,24.033 C45.44,24.86 46.189,24.345 46.777,24.033 C47.367,23.721 47.996,23.742 48.13,22.938 C48.264,22.133 46.791,19.992 46.29,18.718 C45.789,17.446 45.384,15.37 45.451,14.637 C45.518,13.904 44.645,12.694 43.798,12.778 C42.392,12.917 42.025,13.588 41.609,14.926 C41.286,15.2 40.87,15.57 40.363,16.057 C39.089,17.282 40.095,18.852 39.663,19.555 C39.231,20.254 38.621,21.198 38.822,22.212 C39.023,23.229 40.228,24.143 41.017,24.032 C41.806,23.921 41.43,21.81 41.43,21.81 C41.43,21.81 41.836,19.656 42.366,19.23 Z M33.375,29.055 C34.176,29.881 34.627,28.55 34.627,28.55 C34.627,28.55 35.565,27.335 36.429,26.889 C37.293,26.442 37.975,25.37 38.31,25.104 C38.645,24.836 39.082,23.79 38.784,23.653 C37.852,23.231 37.529,24.077 37.217,24.479 C36.905,24.884 34.94,25.997 34.256,26.491 C33.57,26.98 32.573,28.229 33.375,29.055 Z M40.073,24.582 C39.136,24.193 38.69,25.37 38.31,25.771 C37.93,26.172 37.172,27.556 36.681,27.914 C36.19,28.271 35.967,28.359 34.985,29.189 C34.003,30.019 35.208,30.547 35.654,30.37 C36.1,30.189 36.592,29.165 36.949,28.55 C37.306,27.936 38.913,26.575 39.664,26.188 C40.415,25.801 40.604,24.801 40.073,24.582 Z M45.251,25.191 C44.715,25.592 44.447,27.021 44.224,27.691 C44.001,28.359 42.84,29.611 42.366,30.623 C41.891,31.634 42.483,31.889 43.242,31.644 C44.001,31.4 44.313,29.832 45.044,29.052 C45.775,28.273 46.68,26.306 46.947,26.187 C47.215,26.066 47.39,25.205 46.777,24.79 C46.474,24.585 45.787,24.79 45.251,25.191 Z M48.43,25.236 C47.324,24.88 47.036,26.665 46.777,27.298 C46.519,27.932 45.206,30.059 44.784,30.404 C44.362,30.751 43.867,32.021 44.694,31.881 C45.521,31.74 45.474,30.639 45.742,30.18 C46.01,29.721 47.929,27.067 48.43,26.62 C48.931,26.173 48.814,25.361 48.43,25.236 Z M33.375,30.18 C33.819,29.811 33.243,29.479 32.796,29.326 C32.796,29.326 31.68,30.638 31.278,31.009 C30.877,31.379 31.457,32.694 31.955,32.694 C32.453,32.694 32.081,31.979 32.263,31.647 C32.444,31.312 32.931,30.549 33.375,30.18 Z M33.535,30.404 C33.535,30.404 33.243,30.861 33.077,31.644 C32.911,32.426 32.975,33.002 33.535,33.017 C34.095,33.031 33.779,31.216 34.002,31.002 C34.225,30.788 34.001,30.459 33.535,30.404 Z M35.475,32.438 C35.252,32.051 35.118,31.533 35.118,31.184 C35.118,30.836 34.608,30.803 34.608,30.803 C34.233,31.059 34.358,31.309 34.254,31.91 C34.15,32.514 34.671,33.048 35.042,33.017 C35.412,32.988 35.698,32.825 35.475,32.438 Z M30.924,33.02 C30.478,33.862 30.833,34.299 31.145,34.166 C31.457,34.033 31.726,33.897 31.636,33.458 C31.547,33.018 30.924,33.02 30.924,33.02 Z M32.752,33.896 C32.171,34.476 33.02,35.279 33.543,35.3 C34.066,35.321 33.913,34.252 33.778,34.157 C33.645,34.066 33.069,33.579 32.752,33.896 Z M34.777,33.79 C34.512,34.562 35.207,34.923 35.553,34.945 C35.9,34.966 36.144,33.984 35.98,33.79 C35.815,33.596 34.875,33.508 34.777,33.79 Z M43.242,34.305 C43.554,33.952 42.885,33.495 42.84,33.02 C42.796,32.541 42.439,32.157 42.036,32.438 C42.036,32.438 41.947,33.897 42.036,34.188 C42.126,34.479 42.93,34.654 43.242,34.305 Z M45.044,34.546 C45.597,34.348 44.582,33.628 44.247,33.42 C43.913,33.213 43.698,32.169 43.325,32.342 C42.828,32.573 43.332,32.959 43.57,33.604 C43.808,34.247 44.492,34.745 45.044,34.546 Z M46.054,33.42 C45.697,33.346 45.018,32.245 44.694,32.342 C43.914,32.573 44.715,33.182 45.044,33.604 C45.373,34.026 45.92,34.522 46.505,34.305 C47.09,34.086 46.412,33.495 46.054,33.42 Z M42.661,35.302 C42.214,35.815 42.796,36.442 43.263,36.616 C43.73,36.793 43.956,36.039 43.864,35.726 C43.772,35.413 42.987,34.928 42.661,35.302 Z M44.363,35.302 C44.003,36.016 45.072,36.664 45.549,36.616 C46.026,36.568 46.144,35.994 45.831,35.503 C45.518,35.012 44.564,34.902 44.363,35.302 Z M46.734,34.973 C45.896,35.645 48.152,36.264 48.43,36.164 C48.708,36.064 48.197,35.234 47.929,34.973 C47.662,34.708 46.948,34.8 46.734,34.973 Z" id="Shape" fill="#FFFFFF" fill-rule="nonzero"></path>
    </g>
</svg>