<?xml version="1.0" encoding="UTF-8"?>
<svg width="1199px" height="222px" viewBox="0 0 1199 222" version="1.1" xmlns="http://www.w3.org/2000/svg" xmlns:xlink="http://www.w3.org/1999/xlink">
    <!-- Generator: Sketch 46.2 (44496) - http://www.bohemiancoding.com/sketch -->
    <title>Group</title>
    <desc>Created with Sketch.</desc>
    <defs></defs>
    <g id="Page-1" stroke="none" stroke-width="1" fill="none" fill-rule="evenodd">
        <g id="Group">
            <ellipse id="Oval" fill="#FFBF64" cx="779.692833" cy="73.1474654" rx="37.3720137" ry="37.3410138"></ellipse>
            <path d="M1094.76676,203.126894 C982.328232,226.200679 911.260445,220.525463 881.563403,186.101244 C837.017839,134.464916 794.239128,37.3888622 656.313993,41.1975094 C518.388858,45.0061566 462.316952,175.352076 355.845704,160.686264 C249.374455,146.020453 269.031573,83.6277565 202.076318,83.116577 C135.121064,82.6053975 111.753018,202.523785 0,221.243034 C159.115577,221.243034 524.037832,215.204321 1094.76676,203.126894 Z" id="Path-3" fill="#0269D7"></path>
            <path d="M240.600557,134.708301 C299.264703,66.5835491 340.065406,0.32465347 440.647096,0.000678428103 C541.228786,-0.323296614 570.002438,115.491781 671.016453,119.037508 C772.030469,122.583235 777.668711,59.8580672 899.89669,61.9039096 C1022.12467,63.949752 1084.39753,220.021729 1190.82162,220.837666 C1261.77101,221.381624 879.16494,221.381624 43.003413,220.837666 C135.625412,208.83459 201.491126,180.124802 240.600557,134.708301 Z" id="Path-2" fill="#62CCC2"></path>
        </g>
    </g>
</svg>