<?xml version="1.0" encoding="UTF-8"?>
<svg width="50px" height="33px" viewBox="0 0 50 33" version="1.1" xmlns="http://www.w3.org/2000/svg" xmlns:xlink="http://www.w3.org/1999/xlink">
    <!-- Generator: Sketch 46.2 (44496) - http://www.bohemiancoding.com/sketch -->
    <title>Olly</title>
    <desc>Created with Sketch.</desc>
    <defs>
        <linearGradient x1="0%" y1="50%" x2="100%" y2="50%" id="linearGradient-1">
            <stop stop-color="#65CFC0" offset="0%"></stop>
            <stop stop-color="#1E7DFE" offset="100%"></stop>
        </linearGradient>
    </defs>
    <g id="Page-1" stroke="none" stroke-width="1" fill="none" fill-rule="evenodd">
        <path d="M11.995,15.582 C11.621,15.412 11.383,15.276 11.077,14.868 C10.669,14.29 10.635,14.018 10.635,12.862 C10.635,11.808 10.737,10.992 11.689,9.326 C11.995,8.816 12.811,7.218 14.443,7.218 C14.885,7.218 15.327,7.388 15.667,7.864 C15.769,8 15.871,8.204 16.007,8.578 C16.483,9.768 16.415,10.21 16.381,10.822 C16.619,10.652 16.959,10.38 17.469,10.38 C18.285,10.38 18.319,11.434 18.319,11.876 C18.319,12.42 18.251,12.624 18.115,12.93 C17.775,13.61 16.687,14.46 16.143,14.8 C15.939,14.902 15.735,15.004 15.565,15.106 C15.361,15.548 15.293,16.058 15.055,16.67 C14.681,17.792 13.899,19.628 12.233,21.566 C11.723,22.144 11.179,22.688 10.567,23.198 C10.397,23.334 9.377,24.286 8.595,24.694 C7.711,25.17 6.181,25.476 5.263,25.476 C4.345,25.476 3.121,25.306 2.339,24.694 C2.033,24.456 1.693,24.116 1.353,23.368 C0.877,22.45 0.571,21.464 0.571,19.662 C0.571,18.982 0.639,18.336 0.741,17.656 C0.911,16.5 1.591,12.488 3.903,8.646 C4.583,7.524 5.331,6.504 6.283,5.552 C7.167,4.668 9.513,2.594 12.335,1.234 C13.287,0.758 13.831,0.554 14.307,0.554 C14.409,0.554 14.715,0.588 15.021,0.826 C15.565,1.234 16.007,2.424 16.007,2.968 C16.007,3.138 15.939,3.274 15.803,3.478 C15.565,3.852 15.157,3.954 14.477,4.26 C11.111,5.824 10.023,6.674 8.663,7.966 C8.323,8.306 7.609,8.986 7.031,9.87 C6.827,10.176 6.555,10.584 6.147,11.434 C5.841,12.08 5.569,12.76 5.399,13.338 C4.889,14.834 4.311,17.826 4.311,19.458 C4.311,19.526 4.345,20.682 4.617,21.668 C4.787,22.144 4.957,22.246 5.161,22.246 C5.569,22.246 6.011,22.008 6.623,21.634 C9.309,20.036 11.043,17.316 11.553,16.432 C11.689,16.16 11.859,15.854 11.995,15.582 Z M26.615,17.928 L26.615,21.022 C25.289,21.906 23.963,22.756 22.637,23.572 C21.957,24.014 21.277,24.422 20.597,24.796 C20.223,25 19.815,25.204 19.441,25.408 C19.373,25.442 19.033,25.578 18.761,25.578 C18.455,25.578 18.285,25.442 18.183,25.34 C17.639,24.898 17.605,24.082 17.571,24.014 C17.537,22.756 17.571,21.498 17.537,20.206 C17.537,19.356 17.537,18.506 17.571,17.656 C17.639,15.446 18.149,11.944 18.829,9.734 C19.067,8.986 19.339,8.272 19.645,7.524 C19.951,6.776 20.291,6.028 20.767,5.212 C21.957,3.274 23.351,2.254 24.099,2.254 C24.269,2.254 24.643,2.322 25.051,2.662 C25.765,3.24 26.343,4.668 26.343,6.164 C26.343,6.64 26.309,7.898 25.833,9.326 C25.085,11.57 23.725,13.1 20.767,17.384 C20.733,18.506 20.699,19.526 20.699,20.308 C20.699,20.546 20.699,20.92 20.869,20.954 C20.903,20.954 20.971,20.92 21.039,20.886 C22.195,20.308 23.317,19.764 24.439,19.152 C25.153,18.744 25.901,18.336 26.615,17.928 Z M21.073,12.692 C21.413,12.318 21.719,11.91 21.991,11.536 C22.059,11.468 24.099,8.544 24.099,6.844 C24.099,6.504 23.963,6.266 23.725,6.266 C23.419,6.266 23.045,6.776 22.909,7.014 C21.447,9.36 21.141,12.114 21.073,12.692 Z M35.115,17.928 L35.115,21.022 C33.789,21.906 32.463,22.756 31.137,23.572 C30.457,24.014 29.777,24.422 29.097,24.796 C28.723,25 28.315,25.204 27.941,25.408 C27.873,25.442 27.533,25.578 27.261,25.578 C26.955,25.578 26.785,25.442 26.683,25.34 C26.139,24.898 26.105,24.082 26.071,24.014 C26.037,22.756 26.071,21.498 26.037,20.206 C26.037,19.356 26.037,18.506 26.071,17.656 C26.139,15.446 26.649,11.944 27.329,9.734 C27.567,8.986 27.839,8.272 28.145,7.524 C28.451,6.776 28.791,6.028 29.267,5.212 C30.457,3.274 31.851,2.254 32.599,2.254 C32.769,2.254 33.143,2.322 33.551,2.662 C34.265,3.24 34.843,4.668 34.843,6.164 C34.843,6.64 34.809,7.898 34.333,9.326 C33.585,11.57 32.225,13.1 29.267,17.384 C29.233,18.506 29.199,19.526 29.199,20.308 C29.199,20.546 29.199,20.92 29.369,20.954 C29.403,20.954 29.471,20.92 29.539,20.886 C30.695,20.308 31.817,19.764 32.939,19.152 C33.653,18.744 34.401,18.336 35.115,17.928 Z M29.573,12.692 C29.913,12.318 30.219,11.91 30.491,11.536 C30.559,11.468 32.599,8.544 32.599,6.844 C32.599,6.504 32.463,6.266 32.225,6.266 C31.919,6.266 31.545,6.776 31.409,7.014 C29.947,9.36 29.641,12.114 29.573,12.692 Z M45.247,20.784 L49.973,17.894 L49.939,20.954 C48.851,21.634 47.729,22.28 46.675,22.994 C45.621,23.64 44.601,24.32 43.581,25 C43.173,25.748 42.731,26.462 42.425,27.108 C42.153,27.652 41.949,28.128 41.711,28.604 C41.507,29.08 41.269,29.59 41.031,30.066 C40.555,31.052 39.977,32.378 38.685,32.82 C38.617,32.854 38.311,32.99 37.971,32.99 C37.801,32.99 36.679,32.854 35.625,32.072 C35.421,31.936 35.319,31.868 35.047,31.528 C34.571,30.882 34.605,30.27 34.605,30.066 C34.605,29.794 34.605,29.114 35.115,28.298 C35.727,27.278 36.339,26.87 38.311,25.442 C38.753,25.136 39.161,24.83 39.569,24.524 C40.113,24.15 40.691,23.742 41.235,23.334 L42.833,19.016 C41.915,19.9 40.997,20.784 40.079,21.736 C39.263,22.586 38.481,23.436 37.767,24.184 C37.631,24.32 37.189,24.864 36.713,24.864 C36.441,24.864 36.169,24.694 35.897,24.592 C35.795,24.558 35.285,24.456 34.979,24.082 C34.741,23.776 34.673,23.368 34.673,23.266 C34.605,22.926 34.571,22.62 34.571,22.314 C34.537,22.042 34.571,21.77 34.571,21.532 L34.571,18.778 C34.571,16.466 34.707,16.398 35.387,14.086 C35.591,13.508 35.727,12.896 35.897,12.318 C35.965,11.978 36.101,11.604 36.237,11.264 C36.509,10.924 36.747,10.652 37.427,10.652 C38.209,10.652 38.957,11.094 39.161,11.298 C39.297,11.434 39.399,11.638 39.399,12.012 C39.399,12.216 39.365,12.454 39.331,12.658 C39.093,13.27 38.855,13.848 38.651,14.392 C38.413,15.004 38.039,15.922 37.835,16.67 C37.393,18.2 37.257,20.274 37.257,20.614 C37.257,20.75 37.291,20.886 37.325,21.022 C38.107,20.172 38.889,19.322 39.671,18.438 C40.487,17.486 41.269,16.568 42.051,15.616 C43.037,14.494 43.989,13.338 44.975,12.216 C45.383,11.876 45.689,11.638 46.097,11.638 C46.267,11.638 46.607,11.706 46.947,12.046 C47.049,12.182 47.661,12.93 47.661,13.576 C47.661,13.916 47.559,14.188 47.457,14.528 C46.981,15.65 46.505,16.738 46.131,17.826 C45.791,18.812 45.519,19.798 45.247,20.784 Z M39.093,27.856 C38.345,28.23 38.005,28.536 37.733,28.944 C37.699,29.012 37.427,29.318 37.427,29.624 C37.427,29.692 37.427,29.998 37.733,29.998 C37.835,29.998 37.937,29.93 38.107,29.76 C38.209,29.624 38.855,28.57 39.093,27.856 Z" id="Olly" fill="url(#linearGradient-1)"></path>
    </g>
</svg>