<?xml version="1.0" encoding="UTF-8"?>
<svg width="70px" height="70px" viewBox="0 0 70 70" version="1.1" xmlns="http://www.w3.org/2000/svg" xmlns:xlink="http://www.w3.org/1999/xlink">
    <!-- Generator: Sketch 46.2 (44496) - http://www.bohemiancoding.com/sketch -->
    <title>plane</title>
    <desc>Created with Sketch.</desc>
    <defs>
        <linearGradient x1="50%" y1="0%" x2="50%" y2="100%" id="linearGradient-1">
            <stop stop-color="#62CCC1" offset="0%"></stop>
            <stop stop-color="#0067D8" offset="100%"></stop>
        </linearGradient>
    </defs>
    <g id="Page-1" stroke="none" stroke-width="1" fill="none" fill-rule="evenodd">
        <g id="plane" fill-rule="nonzero" fill="url(#linearGradient-1)">
            <path d="M2.69365127,54.8432494 C2.69499485,54.864501 2.69969737,54.8844244 2.7037281,54.905676 C2.70574346,54.9189583 2.70171273,54.9315764 2.70439988,54.9448587 C2.70775883,54.958805 2.71649208,54.9694308 2.72052281,54.9840413 C2.72724069,55.005957 2.73463036,55.0265445 2.74336361,55.0477961 C2.74739434,55.058422 2.74605077,55.0683836 2.75075329,55.0776812 C2.75478402,55.0869788 2.76217369,55.0929558 2.76687621,55.1022534 C2.77023515,55.1082304 2.76956336,55.1148715 2.7729223,55.1201844 C2.77695303,55.1268256 2.78299913,55.1321385 2.78702986,55.1381155 C2.79845026,55.1567107 2.81255782,55.1726494 2.82599359,55.1899163 C2.83942936,55.2071832 2.8488344,55.2277707 2.86361374,55.2430453 C2.86428553,55.2443736 2.86428553,55.2450377 2.86495732,55.2457018 C2.86697268,55.2483582 2.87100342,55.2490223 2.87301878,55.2516788 C2.88846991,55.2676175 2.90526463,55.2808998 2.92205934,55.2948461 C2.93818226,55.3087925 2.95430518,55.3214106 2.97177168,55.3340288 C2.98587924,55.3446546 2.99931501,55.3559445 3.01409435,55.3652421 C3.03290443,55.3771961 3.05305808,55.3831731 3.07253995,55.3924707 C3.0866475,55.399776 3.10008327,55.4064171 3.11419083,55.41173 C3.1276266,55.4170429 3.14039058,55.4230199 3.15449813,55.4270046 C3.16323138,55.429661 3.17129284,55.4336457 3.18002609,55.4363022 C3.23712811,55.4515768 3.2955737,55.4602102 3.35469109,55.4608743 C3.35603466,55.4608743 3.35805003,55.4615385 3.35939361,55.4615385 C3.35939361,55.4615385 3.35939361,55.4615385 3.36006539,55.4615385 C3.36006539,55.4615385 3.36006539,55.4615385 3.36006539,55.4615385 C3.36006539,55.4615385 3.36006539,55.4615385 3.36006539,55.4615385 L3.36006539,55.4615385 C3.36342434,55.4615385 3.36745507,55.4602102 3.37081401,55.4602102 C3.41649562,55.4595461 3.46217724,55.4555614 3.50853064,55.4455998 L66.791001,41.224951 C66.7977189,41.2229586 66.8030932,41.2183098 66.8091393,41.2163175 C66.8837078,41.1970582 66.9576045,41.1691655 67.0241116,41.1226776 C67.0261269,41.1213494 67.0267987,41.1200211 67.0281423,41.1186929 C67.0892751,41.0761897 67.1376438,41.0210683 67.1806383,40.9619623 C67.1893715,40.9506723 67.2028073,40.9433671 67.210197,40.9314131 C67.2437864,40.8789482 67.2605811,40.8178498 67.2787194,40.7580796 C67.2847655,40.7361639 67.298873,40.7169046 67.3029038,40.6943248 C67.3069345,40.6757296 67.3002166,40.6538139 67.302232,40.6345546 C67.3082781,40.5681433 67.3123088,40.5010679 67.2975295,40.4346566 C67.2968577,40.4326643 67.2975295,40.430672 67.2975295,40.4293437 C67.2861091,40.3828558 67.2592375,40.3450014 67.2397557,40.3038264 C67.2243045,40.2686284 67.2175866,40.2314381 67.194074,40.1982325 L67.1886997,40.1902631 C67.188028,40.189599 67.1873562,40.1882708 67.1866844,40.1869425 L59.3348212,28.9913279 C59.3207136,28.9707404 59.2985446,28.9601146 59.2824217,28.9421835 C59.2521912,28.9076496 59.2206171,28.8764363 59.1843406,28.8492077 C59.1500794,28.8233073 59.1151464,28.8027198 59.078198,28.7841246 C59.0392343,28.7648654 59.0016141,28.7495908 58.9592914,28.7383009 C58.9176406,28.7263468 58.8766615,28.7203698 58.8329952,28.7170492 C58.7913443,28.7137287 58.7503652,28.7143928 58.7073708,28.7183775 C58.662361,28.7230263 58.6200383,28.7336521 58.576372,28.7475984 C58.5528594,28.7555678 58.5286751,28.7535755 58.5051625,28.7635371 L57.2583231,29.3200637 L56.7524664,25.7404954 C56.7497793,25.7238926 56.7390307,25.7106103 56.7363435,25.6946716 C56.7276103,25.6534966 56.7135027,25.6163063 56.6960362,25.5771236 C56.6866312,25.5552079 56.6866312,25.5312998 56.674539,25.5093841 C56.6725236,25.5053994 56.6684929,25.5034071 56.6658057,25.5000865 C56.6557289,25.4834837 56.6409496,25.4715297 56.6295292,25.455591 C56.6187805,25.4403164 56.6154216,25.4223853 56.6040012,25.4077748 L47.6611536,14.7746637 C47.6571229,14.7700149 47.6517485,14.7686867 47.6477178,14.7640379 C47.6436871,14.7600533 47.6430153,14.7547404 47.6396564,14.7507557 C47.6127848,14.7221988 47.5778518,14.7082525 47.5482931,14.6850085 C47.510673,14.6564516 47.4777553,14.623246 47.4361045,14.6039867 C47.3971407,14.5853916 47.3561616,14.5794146 47.313839,14.5687888 C47.2715163,14.5581629 47.2325526,14.5415601 47.1888863,14.5389037 C47.1452201,14.5362472 47.1035692,14.5462089 47.0612465,14.5515218 C47.0189238,14.5568347 46.9759294,14.5568347 46.9349503,14.570117 C46.8932994,14.5833992 46.8576946,14.6106279 46.8187309,14.6318795 C46.7837979,14.6511387 46.7461777,14.6611004 46.7146037,14.687665 C46.7099012,14.6909855 46.7078858,14.6962984 46.7038551,14.7002831 C46.6998243,14.7036037 46.6937782,14.7049319 46.6897475,14.7082525 L2.9066082,54.3073103 C2.89854674,54.3139514 2.89585959,54.3239131 2.88846991,54.3312184 C2.87436236,54.3451647 2.86092659,54.3577829 2.8488344,54.3723934 C2.83607042,54.387668 2.82599359,54.4029426 2.81457319,54.4188813 C2.79979384,54.4394688 2.78702986,54.4613845 2.77493767,54.4852925 C2.76351727,54.50588 2.75142507,54.5251393 2.74269182,54.5463909 C2.73664573,54.5616655 2.73059963,54.5776042 2.72522533,54.5928788 C2.71917923,54.611474 2.71582029,54.629405 2.71111777,54.6486643 C2.70507167,54.6732365 2.70238452,54.6978087 2.69902558,54.7237091 C2.69633842,54.746953 2.69230769,54.7695329 2.69230769,54.7934409 C2.69230769,54.8107079 2.69230769,54.8259824 2.69365127,54.8432494 Z M19.9324142,46.4535115 L55.5573548,26.8840977 L55.9832687,29.8965137 L19.9324142,46.4535115 Z" id="Shape"></path>
        </g>
    </g>
</svg>