<?xml version="1.0" encoding="UTF-8"?>
<svg width="70px" height="70px" viewBox="0 0 70 70" version="1.1" xmlns="http://www.w3.org/2000/svg" xmlns:xlink="http://www.w3.org/1999/xlink">
    <!-- Generator: Sketch 46.2 (44496) - http://www.bohemiancoding.com/sketch -->
    <title>telephone</title>
    <desc>Created with Sketch.</desc>
    <defs>
        <linearGradient x1="50%" y1="0%" x2="50%" y2="100%" id="linearGradient-1">
            <stop stop-color="#62CCC1" offset="0%"></stop>
            <stop stop-color="#0067D8" offset="100%"></stop>
        </linearGradient>
    </defs>
    <g id="Page-1" stroke="none" stroke-width="1" fill="none" fill-rule="evenodd">
        <g id="telephone" fill-rule="nonzero" fill="url(#linearGradient-1)">
            <path d="M40.8174516,30.1948304 C40.8174516,28.8941793 40.8174516,27.593214 40.8174516,26.2925628 C42.40916,26.2925628 44.0008685,26.2925628 45.5928928,26.2925628 C45.5928928,28.3877422 45.5534159,30.3132713 45.763433,32.4002823 C49.0643331,38.5303077 52.928016,44.5601138 58.0429585,49.3662397 C58.100121,52.929207 58.1563361,56.4918601 58.2134987,60.0545132 C57.4173286,60.959314 56.6214744,61.864429 55.8256202,62.7692298 C54.6883697,62.7692298 53.5517509,62.7692298 52.4145005,62.7692298 C52.4145005,62.1471792 52.4145005,61.5251287 52.4145005,60.9030781 C40.823452,61.0142932 29.1761885,61.0142932 17.58514,60.9030781 C17.58514,61.5251287 17.58514,62.1471792 17.58514,62.7692298 C16.4478896,62.7692298 15.310955,62.7692298 14.1740204,62.7692298 C13.3778503,61.864429 12.5819961,60.959314 11.7861418,60.0545132 C11.8429886,56.4915459 11.8998353,52.9288928 11.956682,49.3662397 C17.0719404,44.5601138 20.9349916,38.5303077 24.2362076,32.4002823 C24.4462247,30.3132713 24.4067478,28.3880563 24.4067478,26.2925628 C25.998772,26.2925628 27.5901647,26.2925628 29.182189,26.2925628 C29.182189,27.593214 29.182189,28.8941793 29.182189,30.1948304 C34.0729027,30.1260278 35.9267378,30.1260278 40.8174516,30.1948304 L40.8174516,30.1948304 Z M60.7277033,30.3214397 L47.5398933,30.3779897 C47.6213736,33.4832158 49.2923517,35.7772628 59.7502553,34.49232 C60.242927,32.9821195 60.5622161,31.5950725 60.7277033,30.3214397 L60.7277033,30.3214397 Z M9.19108857,29.4794723 C13.6143959,29.4603081 18.0377032,29.4414581 22.4610105,29.4222939 C21.6556818,16.4368317 48.3180619,16.394105 47.5642111,29.2670954 L60.834133,29.2102312 C61.7717882,7.82048915 7.53337473,7.89903088 9.19108857,29.4794723 L9.19108857,29.4794723 Z M22.4872231,30.5331882 L9.30794019,30.5897382 C9.48227016,31.8492335 9.80629653,33.2174305 10.3014947,34.7046968 C20.7132893,35.8935046 22.4073219,33.6148517 22.4872231,30.5331882 L22.4872231,30.5331882 Z M34.9998203,35.792657 C29.0277554,35.792657 24.1863088,40.5664236 24.1863088,46.4542263 C24.1863088,52.342029 29.0277554,57.1161098 34.9998203,57.1161098 C40.9718852,57.1161098 45.8133318,52.3423431 45.8133318,46.4542263 C45.8133318,40.5661095 40.9718852,35.792657 34.9998203,35.792657 L34.9998203,35.792657 Z M26.8937922,45.4463788 C26.0480392,45.4463788 25.3627203,46.1284352 25.3627203,46.9694601 C25.3627203,47.810485 26.0477234,48.4925414 26.8937922,48.4925414 C27.7395453,48.4925414 28.4245484,47.810485 28.4245484,46.9694601 C28.4245484,46.1284352 27.7395453,45.4463788 26.8937922,45.4463788 L26.8937922,45.4463788 Z M28.1665274,40.7354455 C27.3210902,40.7354455 26.6357712,41.4175019 26.6357712,42.2585268 C26.6357712,43.0995517 27.3210902,43.7816081 28.1665274,43.7816081 C29.0122804,43.7816081 29.6975993,43.0995517 29.6975993,42.2585268 C29.6975993,41.4175019 29.0122804,40.7354455 28.1665274,40.7354455 L28.1665274,40.7354455 Z M32.4192945,37.4225551 C31.5738573,37.4225551 30.8882225,38.1042973 30.8882225,38.9453222 C30.8882225,39.7863471 31.5738573,40.4684036 32.4192945,40.4684036 C33.2647317,40.4684036 33.9503664,39.7863471 33.9503664,38.9453222 C33.9503664,38.1042973 33.2650475,37.4225551 32.4192945,37.4225551 L32.4192945,37.4225551 Z M43.1058483,44.801394 C42.2604111,44.801394 41.5750922,45.4834505 41.5750922,46.3244754 C41.5750922,47.1655003 42.2604111,47.8475567 43.1058483,47.8475567 C43.9519171,47.8475567 44.6369202,47.1655003 44.6369202,46.3244754 C44.6369202,45.4834505 43.9519171,44.801394 43.1058483,44.801394 L43.1058483,44.801394 Z M41.9133302,49.1818237 C41.0675772,49.1818237 40.3822582,49.8638801 40.3822582,50.704905 C40.3822582,51.5459299 41.0675772,52.2279864 41.9133302,52.2279864 C42.7590832,52.2279864 43.4444022,51.5459299 43.4444022,50.704905 C43.4444022,49.8638801 42.7590832,49.1818237 41.9133302,49.1818237 L41.9133302,49.1818237 Z M38.1349175,52.3175239 C37.2894803,52.3175239 36.6038455,52.9992662 36.6038455,53.8402911 C36.6038455,54.681316 37.2894803,55.3636866 38.1349175,55.3636866 C38.9806705,55.3636866 39.6659894,54.681316 39.6659894,53.8402911 C39.6659894,52.9992662 38.9803547,52.3175239 38.1349175,52.3175239 L38.1349175,52.3175239 Z M33.1396689,52.6203809 C32.2939159,52.6203809 31.6085969,53.3024373 31.6085969,54.1434622 C31.6085969,54.9848013 32.2939159,55.6668577 33.1396689,55.6668577 C33.9851061,55.6668577 34.670425,54.9848013 34.670425,54.1434622 C34.670425,53.3024373 33.9851061,52.6203809 33.1396689,52.6203809 L33.1396689,52.6203809 Z M28.8082638,49.9854627 C27.9625108,49.9854627 27.2771919,50.6675192 27.2771919,51.5085441 C27.2771919,52.3498831 27.9625108,53.0319396 28.8082638,53.0319396 C29.6540168,53.0319396 30.33902,52.3498831 30.33902,51.5085441 C30.3393358,50.667205 29.6540168,49.9854627 28.8082638,49.9854627 L28.8082638,49.9854627 Z M37.6769855,37.2425374 C36.8312324,37.2425374 36.1455977,37.9242797 36.1455977,38.7653046 C36.1455977,39.6063295 36.8312324,40.2883859 37.6769855,40.2883859 C38.5227385,40.2883859 39.2080574,39.6063295 39.2080574,38.7653046 C39.2080574,37.9242797 38.5227385,37.2425374 37.6769855,37.2425374 L37.6769855,37.2425374 Z M41.6780479,40.2591684 C40.8326107,40.2591684 40.1469759,40.9412248 40.1469759,41.7822497 C40.1469759,42.6232746 40.8326107,43.3056452 41.6780479,43.3056452 C42.5238009,43.3056452 43.2094357,42.6232746 43.2094357,41.7822497 C43.2094357,40.9412248 42.5238009,40.2591684 41.6780479,40.2591684 L41.6780479,40.2591684 Z M34.9998203,41.1799917 C32.0453693,41.1799917 29.6505429,43.5415846 29.6505429,46.4542263 C29.6505429,49.3671822 32.0453693,51.7290893 34.9998203,51.7290893 C37.9539554,51.7290893 40.3494135,49.3671822 40.3494135,46.4542263 C40.3494135,43.5415846 37.9539554,41.1799917 34.9998203,41.1799917 Z" id="Shape"></path>
        </g>
    </g>
</svg>